<svg version="1.2" xmlns="http://www.w3.org/2000/svg" viewBox="0 0 151 140" width="151" height="140">
	<title>editcamera-svg</title>
	<style>
		.s0 { opacity: .7;fill: #565656 } 
	</style>
	<path id="Layer" fill-rule="evenodd" class="s0" d="m15.1 140q-6.2 0-10.7-4-4.4-4-4.4-9.6v-81.3q0-5.6 4.4-9.6 4.5-4 10.7-3.9h23.8l13.9-13.6h45.4l13.9 13.6h23.8q6.2 0 10.7 3.9 4.4 4 4.4 9.6v81.3q0 5.6-4.4 9.6-4.5 4-10.7 4zm120.8-13.6v-81.3h-30.6l-13.8-13.5h-32l-13.8 13.5h-30.6v81.3zm-84.5-19q-9.9-8.9-9.9-21.6 0-12.7 9.9-21.6 9.9-8.9 24.1-8.9 14.1 0 24.1 8.9 9.9 8.9 9.9 21.6 0 12.7-9.9 21.6-9.9 8.9-24.1 8.9-14.1 0-24.1-8.9zm37.5-9.6q5.5-4.9 5.5-12 0-7.1-5.5-12.1-5.5-4.9-13.4-4.9-7.9 0-13.4 4.9-5.5 5-5.5 12.1 0 7.1 5.5 12 5.5 4.9 13.4 4.9 7.9 0 13.4-4.9z"/>
</svg>